# File created by Blade
# Date/Time:  Thu Jan 22 19:01:23 2015
#---------------------------------------------------------
:version 1.10
:name HOM
:units
  mass 1.0
  length 1.000000
  angle deg
:documentation
     Acclaim Skeleton File
:root
   axis xyz
   order TX TY TZ RX RY RZ
   position 0.000000 0.000000 0.000000
   orientation 0 0 0
:bonedata
   begin
      id 1
      name RightUpLeg_dum
      direction -1.000000 0.000000 0.000000
      length 4.478084
      axis 0.0 0.0 0.0 xyz
   end
   begin
      id 2
      name LeftUpLeg_dum
      direction 1.000000 0.000000 0.000000
      length 4.478084
      axis 0.0 0.0 0.0 xyz
   end
   begin
      id 3
      name Spine_dum
      direction 0.000000 1.000000 0.000000
      length 6.068208
      axis 0.0 0.0 0.0 xyz
   end
   begin
      id 4
      name RightUpLeg
      direction 0.000000 -1.000000 0.000000
      length 16.405774
      axis 0.0 0.0 0.0 xyz
      dof rx ry rz
   end
   begin
      id 5
      name RightLeg
      direction 0.000000 -1.000000 0.000000
      length 14.644143
      axis 0.0 0.0 0.0 xyz
      dof rx ry rz
   end
   begin
      id 6
      name RightFoot
      direction 0.000000 -0.258819 0.965926
      length 5.806150
      axis 15.0 0.0 0.0 xyz
      dof rx ry rz
   end
   begin
      id 7
      name RightToeBase
      direction 0.000000 0.000000 1.000000
      length 2.952750
      axis 0.0 0.0 0.0 xyz
      dof rx ry rz
   end
   begin
      id 8
      name LeftUpLeg
      direction 0.000000 -1.000000 0.000000
      length 16.405774
      axis 0.0 0.0 0.0 xyz
      dof rx ry rz
   end
   begin
      id 9
      name LeftLeg
      direction 0.000000 -1.000000 0.000000
      length 14.644143
      axis 0.0 0.0 0.0 xyz
      dof rx ry rz
   end
   begin
      id 10
      name LeftFoot
      direction 0.000000 -0.258819 0.965926
      length 5.806150
      axis 15.0 0.0 0.0 xyz
      dof rx ry rz
   end
   begin
      id 11
      name LeftToeBase
      direction 0.000000 0.000000 1.000000
      length 2.952750
      axis 0.0 0.0 0.0 xyz
      dof rx ry rz
   end
   begin
      id 12
      name Spine
      direction 0.000000 1.000000 0.000000
      length 0.000000
      axis 0.0 0.0 0.0 xyz
      dof rx ry rz
   end
   begin
      id 13
      name Spine_dum1
      direction 0.000000 1.000000 0.000000
      length 10.013923
      axis 0.0 0.0 0.0 xyz
   end
   begin
      id 14
      name Spine_dum2
      direction 0.000000 1.000000 0.000000
      length 10.013923
      axis 0.0 0.0 0.0 xyz
   end
   begin
      id 15
      name Spine_dum3
      direction 0.000000 1.000000 0.000000
      length 15.777476
      axis 0.0 0.0 0.0 xyz
   end
   begin
      id 16
      name RightShoulder
      direction -1.000000 0.000000 0.000000
      length 7.190220
      axis 0.0 0.0 90.0 xyz
      dof rx ry rz
   end
   begin
      id 17
      name RightArm
      direction -1.000000 0.000000 0.000000
      length 10.177469
      axis 0.0 0.0 90.0 xyz
      dof rx ry rz
   end
   begin
      id 18
      name RightForeArm
      direction -1.000000 0.000000 0.000000
      length 8.392114
      axis 0.0 0.0 90.0 xyz
      dof ry rz rx
   end
   begin
      id 19
      name RightHand
      direction -1.000000 0.000000 0.000000
      length 0.000000
      axis 0.0 0.0 90.0 xyz
      dof rx ry rz
   end
   begin
      id 20
      name RightHand_dum1
      direction -1.000000 0.000000 0.000000
      length 3.937000
      axis 0.0 0.0 90.0 xyz
   end
   begin
      id 21
      name RightHand_dum2
      direction 0.000000 0.000000 0.000000
      length 0.000000
      axis 0.0 0.0 90.0 xyz
   end
   begin
      id 22
      name RightHandThumb1
      direction 0.000000 0.000000 1.000000
      length 3.937000
      axis 0.0 0.0 90.0 xyz
      dof rx rz ry
   end
   begin
      id 23
      name LeftShoulder
      direction 1.000000 0.000000 0.000000
      length 7.190220
      axis 0.0 0.0 -90.0 xyz
      dof rx ry rz
   end
   begin
      id 24
      name LeftArm
      direction 1.000000 0.000000 0.000000
      length 10.177469
      axis 0.0 0.0 -90.0 xyz
      dof rx ry rz
   end
   begin
      id 25
      name LeftForeArm
      direction 1.000000 0.000000 0.000000
      length 8.392114
      axis 0.0 0.0 -90.0 xyz
      dof ry rz rx
   end
   begin
      id 26
      name LeftHand
      direction 1.000000 0.000000 0.000000
      length 0.000000
      axis 0.0 0.0 -90.0 xyz
      dof rx ry rz
   end
   begin
      id 27
      name LeftHand_dum1
      direction 1.000000 0.000000 0.000000
      length 3.937000
      axis 0.0 0.0 -90.0 xyz
   end
   begin
      id 28
      name LeftHand_dum2
      direction 0.000000 0.000000 0.000000
      length 0.000000
      axis 0.0 0.0 -90.0 xyz
   end
   begin
      id 29
      name LeftHandThumb1
      direction 0.000000 0.000000 1.000000
      length 3.937000
      axis 0.0 0.0 -90.0 xyz
      dof rx rz ry
   end
   begin
      id 30
      name Head
      direction 0.000000 1.000000 0.000000
      length 4.527550
      axis 0.0 0.0 0.0 xyz
      dof rx ry rz
   end
:hierarchy
   begin
      root RightUpLeg_dum LeftUpLeg_dum Spine_dum
      RightUpLeg_dum RightUpLeg
      LeftUpLeg_dum LeftUpLeg
      Spine_dum Spine
      RightUpLeg RightLeg
      RightLeg RightFoot
      RightFoot RightToeBase
      LeftUpLeg LeftLeg
      LeftLeg LeftFoot
      LeftFoot LeftToeBase
      Spine Spine_dum1 Spine_dum2 Spine_dum3
      Spine_dum1 RightShoulder
      Spine_dum2 LeftShoulder
      Spine_dum3 Head
      RightShoulder RightArm
      RightArm RightForeArm
      RightForeArm RightHand
      RightHand RightHand_dum1 RightHand_dum2
      RightHand_dum2 RightHandThumb1
      LeftShoulder LeftArm
      LeftArm LeftForeArm
      LeftForeArm LeftHand
      LeftHand LeftHand_dum1 LeftHand_dum2
      LeftHand_dum2 LeftHandThumb1
   end

# File created by Blade
# Date/Time:  Thu Jan 22 19:01:15 2015
# Frame Rate: 120.000 fps
#------------------------------------------------------
:FULLY-SPECIFIED
:DEGREES
986
root -2.932948 32.635298 -10.221804 62.618182 -3.523376 2.670867
RightUpLeg -74.351233 -2.749978 3.975673
RightLeg -0.477123 -0.000000 0.000000
RightFoot 5.361467 -1.507153 2.551179
RightToeBase 7.449501 -0.000000 -0.000000
LeftUpLeg -72.228407 3.593720 -3.789106
LeftLeg -2.482628 -0.000000 0.000000
LeftFoot 6.490785 3.576942 -10.749106
LeftToeBase 11.000106 -0.000000 -0.000000
Spine 46.593549 -3.074982 -5.980426
RightShoulder -50.525931 -55.347510 3.543187
RightArm -4.093436 -19.501129 73.425914
RightForeArm -30.036351 -0.000000 3.355543
RightHand 4.804967 -0.000000 52.898411
RightHandThumb1 -24.326973 -0.000000 -32.862282
LeftShoulder -41.204647 45.222026 8.978149
LeftArm -27.811949 14.948080 -87.255254
LeftForeArm 38.042781 -0.000000 1.073816
LeftHand 4.051737 -0.000000 -49.050917
LeftHandThumb1 -26.253704 0.000000 33.147579
Head 0.681489 9.330992 1.746269
987
root -2.932704 32.634633 -10.224241 62.580953 -3.537304 2.674170
RightUpLeg -74.323104 -2.752775 3.976415
RightLeg -0.473377 -0.000000 0.000000
RightFoot 5.355360 -1.499717 2.575316
RightToeBase 7.448350 -0.000000 -0.000000
LeftUpLeg -72.184579 3.589326 -3.767353
LeftLeg -2.499347 -0.000000 0.000000
LeftFoot 6.499588 3.613515 -10.757850
LeftToeBase 10.954508 -0.000000 -0.000000
Spine 46.668245 -3.094685 -6.016490
RightShoulder -50.540328 -55.234477 3.582029
RightArm -4.071758 -19.522183 73.372719
RightForeArm -30.017289 -0.000000 3.375932
RightHand 4.823368 -0.000000 52.884558
RightHandThumb1 -24.326973 -0.000000 -32.862282
LeftShoulder -41.295305 45.054662 8.902305
LeftArm -27.852838 14.992173 -87.227914
LeftForeArm 38.013405 -0.000000 1.067416
LeftHand 4.072746 0.000000 -49.070057
LeftHandThumb1 -26.253704 0.000000 33.147579
Head 0.163325 9.476357 1.755424
988
root -2.934179 32.633356 -10.227677 62.556807 -3.545665 2.671823
RightUpLeg -74.308977 -2.741939 3.961027
RightLeg -0.464462 -0.000000 0.000000
RightFoot 5.351951 -1.513344 2.565140
RightToeBase 7.462652 -0.000000 -0.000000
LeftUpLeg -72.168467 3.602793 -3.776669
LeftLeg -2.496026 -0.000000 0.000000
LeftFoot 6.502743 3.596091 -10.760361
LeftToeBase 10.950104 -0.000000 -0.000000
Spine 46.721810 -3.005845 -5.992947
RightShoulder -50.697290 -55.097996 3.812770
RightArm -4.084587 -19.573884 73.297942
RightForeArm -29.901614 -0.000000 3.389539
RightHand 4.798583 -0.000000 52.927902
RightHandThumb1 -24.326973 -0.000000 -32.862282
LeftShoulder -41.290129 44.907666 8.962014
LeftArm -27.854101 15.076401 -87.204412
LeftForeArm 38.020911 -0.000000 1.051033
LeftHand 4.095176 -0.000000 -49.086060
LeftHandThumb1 -26.253704 0.000000 33.147579
Head -0.350811 9.513993 1.901324
989
root -2.933767 32.632702 -10.231299 62.532060 -3.555282 2.675597
RightUpLeg -74.293546 -2.736029 3.929523
RightLeg -0.459498 -0.000000 0.000000
RightFoot 5.347646 -1.540136 2.577430
RightToeBase 7.468017 -0.000000 -0.000000
LeftUpLeg -72.146866 3.601882 -3.774769
LeftLeg -2.500270 -0.000000 0.000000
LeftFoot 6.502734 3.607746 -10.764567
LeftToeBase 10.970130 -0.000000 -0.000000
Spine 46.782114 -2.981286 -5.989947
RightShoulder -50.761283 -54.956617 3.897831
RightArm -4.095831 -19.627421 73.243556
RightForeArm -29.831472 -0.000000 3.396535
RightHand 4.815030 0.000000 52.888857
RightHandThumb1 -24.326973 -0.000000 -32.862282
LeftShoulder -41.370644 44.783104 8.897663
LeftArm -27.820818 15.158656 -87.159469
LeftForeArm 37.983760 -0.000000 1.039344
LeftHand 4.088712 -0.000000 -49.108033
LeftHandThumb1 -26.253704 0.000000 33.147579
Head -0.890772 9.637928 1.962649
990
root -2.932118 32.632120 -10.234783 62.532974 -3.548569 2.682349
RightUpLeg -74.300493 -2.750627 3.945458
RightLeg -0.464533 -0.000000 0.000000
RightFoot 5.359173 -1.525691 2.576518
RightToeBase 7.444392 -0.000000 -0.000000
LeftUpLeg -72.155076 3.589745 -3.770887
LeftLeg -2.497812 -0.000000 0.000000
LeftFoot 6.517134 3.600916 -10.749574
LeftToeBase 10.969418 -0.000000 -0.000000
Spine 46.833970 -3.004979 -5.990692
RightShoulder -50.760059 -54.761824 3.916678
RightArm -4.132652 -19.701645 73.164723
RightForeArm -29.737261 -0.000000 3.405731
RightHand 4.852464 -0.000000 52.856114
RightHandThumb1 -24.326973 -0.000000 -32.862282
LeftShoulder -41.535654 44.601361 8.770687
LeftArm -27.816893 15.271097 -87.103880
LeftForeArm 37.938673 0.000000 1.031586
LeftHand 4.077036 -0.000000 -49.103951
LeftHandThumb1 -26.253704 0.000000 33.147579
Head -1.498944 9.757157 1.993589
991
root -2.930700 32.631583 -10.237177 62.508783 -3.551812 2.687412
RightUpLeg -74.286521 -2.758206 3.941744
RightLeg -0.452847 -0.000000 0.000000
RightFoot 5.352426 -1.521882 2.596050
RightToeBase 7.497292 -0.000000 -0.000000
LeftUpLeg -72.132143 3.583730 -3.779539
LeftLeg -2.500861 -0.000000 0.000000
LeftFoot 6.507891 3.621052 -10.789067
LeftToeBase 10.986752 -0.000000 -0.000000
Spine 46.886085 -2.968025 -5.982402
RightShoulder -50.821212 -54.646877 4.036401
RightArm -4.137454 -19.715945 73.115996
RightForeArm -29.701991 -0.000000 3.425258
RightHand 4.869619 -0.000000 52.928180
RightHandThumb1 -24.326973 -0.000000 -32.862282
LeftShoulder -41.669900 44.597141 8.631211
LeftArm -27.653758 15.306765 -87.048163
LeftForeArm 37.902627 -0.000000 1.042102
LeftHand 4.052699 0.000000 -49.149063
LeftHandThumb1 -26.253704 0.000000 33.147579
Head -2.044224 9.895039 2.093112
